<svg width="704" height="164" viewBox="0 0 704 164" fill="none" xmlns="http://www.w3.org/2000/svg">
<rect width="704" height="164" fill="white"/>
<path d="M175.901 59.56H185.117L204.573 105H193.949L189.917 95.4H171.101L167.069 105H156.445L175.901 59.56ZM174.749 86.568H186.205L180.509 72.936L174.749 86.568ZM210.589 59.56H228.509C230.642 59.56 232.583 59.9227 234.333 60.648C236.082 61.3733 237.554 62.3547 238.749 63.592C239.986 64.8293 240.925 66.28 241.565 67.944C242.247 69.608 242.589 71.3787 242.589 73.256C242.589 76.2 241.821 78.632 240.285 80.552C238.791 82.472 236.594 83.944 233.693 84.968L249.757 105H237.533L222.365 86.248H220.765V105H210.589V59.56ZM227.293 77.608C228.786 77.608 230.023 77.224 231.005 76.456C231.986 75.6453 232.477 74.5787 232.477 73.256C232.477 71.8907 231.986 70.824 231.005 70.056C230.023 69.288 228.786 68.904 227.293 68.904H220.765V77.608H227.293ZM254.244 59.56H264.42V105H254.244V59.56ZM289.866 59.56H299.082L318.538 105H307.914L303.882 95.4H285.066L281.034 105H270.41L289.866 59.56ZM288.714 86.568H300.17L294.474 72.936L288.714 86.568ZM351.903 105.384C357.983 105.384 362.143 103.08 364.767 99.944L361.183 96.68C359.263 99.048 355.999 100.648 352.287 100.648C345.951 100.648 341.663 96.104 341.663 89.448C341.663 82.856 345.951 78.184 352.351 78.184C356.063 78.184 359.135 79.848 361.119 82.152L364.639 79.016C361.567 75.368 356.767 73.448 352.095 73.448C342.815 73.448 336.351 80.04 336.351 89.448C336.351 98.92 342.815 105.384 351.903 105.384ZM372.99 105H378.174V89.32C378.174 82.28 382.014 78.184 388.222 78.184C392.766 78.184 395.902 80.744 395.902 87.784V105H401.086V86.312C401.086 77.416 396.478 73.448 389.758 73.448C384.766 73.448 380.67 75.56 378.238 79.272H378.174V57.896H372.99V105ZM439.17 88.872C439.17 79.976 433.346 73.448 424.834 73.448C415.938 73.448 409.474 80.04 409.474 89.448C409.474 98.984 416.002 105.384 425.218 105.384C431.49 105.384 435.394 103.016 438.082 99.56L434.434 96.488C432.514 98.856 429.57 100.648 425.41 100.648C419.522 100.648 415.426 96.808 414.722 90.984H439.042C439.042 90.6 439.17 89.704 439.17 88.872ZM424.77 78.184C429.89 78.184 433.218 81.64 433.986 86.76H414.85C415.81 81.448 419.778 78.184 424.77 78.184ZM461.17 105.384C466.226 105.384 470.066 103.08 472.306 99.368H472.37V105H477.362V73.832H472.178V79.336L472.05 79.4C469.81 75.624 465.778 73.448 461.17 73.448C452.338 73.448 446.002 80.424 446.002 89.64C446.002 99.112 452.594 105.384 461.17 105.384ZM461.938 100.648C455.538 100.648 451.25 95.912 451.25 89.64C451.25 82.728 456.05 78.184 461.938 78.184C468.082 78.184 472.37 83.24 472.37 89.64C472.37 96.232 467.698 100.648 461.938 100.648ZM496.723 105.384C500.435 105.384 502.547 104.488 504.275 103.464L502.931 98.92C501.395 99.752 499.475 100.52 497.619 100.52C494.675 100.52 493.843 98.728 493.843 94.952V78.312H504.147V73.832H493.843V62.632L488.659 63.208V73.832H484.627V78.312H488.659V95.72C488.659 101.992 491.219 105.384 496.723 105.384ZM521.768 105.384C529.256 105.384 532.968 101.352 532.968 96.488C533.032 90.408 528.68 89.256 522.088 86.696C518.696 85.48 516.2 84.264 516.2 81.832C516.2 79.464 518.568 78.056 521 78.056C523.688 78.056 526.568 78.888 529.256 81.384L531.944 77.288C528.488 74.472 524.968 73.448 521.192 73.448C515.304 73.448 510.952 77.032 510.952 81.832C510.952 87.528 515.24 89.576 520.296 91.368C524.84 93.032 527.72 93.8 527.72 96.552C527.72 98.92 525.544 100.776 521.768 100.776C517.416 100.776 514.664 99.368 512.232 97L509.608 100.968C512.616 103.592 516.584 105.384 521.768 105.384ZM541.578 105H546.762V89.32C546.762 82.28 550.602 78.184 556.81 78.184C561.354 78.184 564.49 80.744 564.49 87.784V105H569.674V86.312C569.674 77.416 565.066 73.448 558.346 73.448C553.354 73.448 549.258 75.56 546.826 79.272H546.762V57.896H541.578V105ZM607.757 88.872C607.757 79.976 601.933 73.448 593.421 73.448C584.525 73.448 578.061 80.04 578.061 89.448C578.061 98.984 584.589 105.384 593.805 105.384C600.077 105.384 603.981 103.016 606.669 99.56L603.021 96.488C601.101 98.856 598.157 100.648 593.997 100.648C588.109 100.648 584.013 96.808 583.309 90.984H607.629C607.629 90.6 607.757 89.704 607.757 88.872ZM593.357 78.184C598.477 78.184 601.805 81.64 602.573 86.76H583.437C584.397 81.448 588.365 78.184 593.357 78.184ZM644.35 88.872C644.35 79.976 638.526 73.448 630.014 73.448C621.118 73.448 614.654 80.04 614.654 89.448C614.654 98.984 621.182 105.384 630.398 105.384C636.67 105.384 640.574 103.016 643.262 99.56L639.614 96.488C637.694 98.856 634.75 100.648 630.59 100.648C624.702 100.648 620.606 96.808 619.902 90.984H644.222C644.222 90.6 644.35 89.704 644.35 88.872ZM629.95 78.184C635.07 78.184 638.398 81.64 639.166 86.76H620.03C620.99 81.448 624.958 78.184 629.95 78.184ZM661.998 105.384C665.71 105.384 667.822 104.488 669.55 103.464L668.206 98.92C666.67 99.752 664.75 100.52 662.894 100.52C659.95 100.52 659.118 98.728 659.118 94.952V78.312H669.422V73.832H659.118V62.632L653.934 63.208V73.832H649.902V78.312H653.934V95.72C653.934 101.992 656.494 105.384 661.998 105.384Z" fill="black"/>
<rect x="35.5" y="35.5" width="93" height="93" rx="6.5" stroke="black" stroke-width="7"/>
<circle cx="50" cy="58" r="2" fill="black"/>
<circle cx="56" cy="58" r="2" fill="black"/>
<rect x="60" y="56" width="35" height="4" rx="2" fill="black"/>
<circle cx="50" cy="70" r="2" fill="black"/>
<circle cx="92" cy="70" r="2" fill="black"/>
<circle cx="86" cy="70" r="2" fill="black"/>
<circle cx="80" cy="70" r="2" fill="black"/>
<rect x="54" y="68" width="22" height="4" rx="2" fill="black"/>
<rect x="96" y="68" width="17" height="4" rx="2" fill="black"/>
<circle cx="50" cy="82" r="2" fill="black"/>
<circle cx="68" cy="82" r="2" fill="black"/>
<circle cx="74" cy="82" r="2" fill="black"/>
<circle cx="62" cy="82" r="2" fill="black"/>
<circle cx="56" cy="82" r="2" fill="black"/>
<rect x="78" y="80" width="22" height="4" rx="2" fill="black"/>
<rect x="102" y="80" width="14" height="4" rx="2" fill="black"/>
<circle cx="74" cy="94" r="2" fill="black"/>
<circle cx="102" cy="94" r="2" fill="black"/>
<circle cx="80" cy="94" r="2" fill="black"/>
<rect x="48" y="92" width="22" height="4" rx="2" fill="black"/>
<rect x="84" y="92" width="14" height="4" rx="2" fill="black"/>
<circle cx="64" cy="106" r="2" fill="black"/>
<circle cx="86" cy="106" r="2" fill="black"/>
<circle cx="98" cy="106" r="2" fill="black"/>
<circle cx="92" cy="106" r="2" fill="black"/>
<rect x="48" y="104" width="12" height="4" rx="2" fill="black"/>
<rect x="68" y="104" width="14" height="4" rx="2" fill="black"/>
</svg>
